<?xml version="1.0" encoding="utf-8" standalone="no"?>
<!DOCTYPE svg PUBLIC "-//W3C//DTD SVG 1.1//EN"
  "http://www.w3.org/Graphics/SVG/1.1/DTD/svg11.dtd">
<svg xmlns:xlink="http://www.w3.org/1999/xlink" width="460.8pt" height="345.6pt" viewBox="0 0 460.8 345.6" xmlns="http://www.w3.org/2000/svg" version="1.1">
 <metadata>
  <rdf:RDF xmlns:dc="http://purl.org/dc/elements/1.1/" xmlns:cc="http://creativecommons.org/ns#" xmlns:rdf="http://www.w3.org/1999/02/22-rdf-syntax-ns#">
   <cc:Work>
    <dc:type rdf:resource="http://purl.org/dc/dcmitype/StillImage"/>
    <dc:date>2023-03-24T00:49:14.020692</dc:date>
    <dc:format>image/svg+xml</dc:format>
    <dc:creator>
     <cc:Agent>
      <dc:title>Matplotlib v3.6.2, https://matplotlib.org/</dc:title>
     </cc:Agent>
    </dc:creator>
   </cc:Work>
  </rdf:RDF>
 </metadata>
 <defs>
  <style type="text/css">*{stroke-linejoin: round; stroke-linecap: butt}</style>
 </defs>
 <g id="figure_1">
  <g id="patch_1">
   <path d="M 0 345.6 
L 460.8 345.6 
L 460.8 0 
L 0 0 
z
" style="fill: #ffffff"/>
  </g>
  <g id="axes_1">
   <g id="patch_2">
    <path d="M 57.6 119.740235 
L 414.72 119.740235 
L 414.72 41.472 
L 57.6 41.472 
z
" style="fill: #ffffff"/>
   </g>
   <g id="matplotlib.axis_1">
    <g id="xtick_1">
     <g id="line2d_1">
      <defs>
       <path id="m3f7c2dd1e5" d="M 0 0 
L 0 3.5 
" style="stroke: #000000; stroke-width: 0.8"/>
      </defs>
      <g>
       <use xlink:href="#m3f7c2dd1e5" x="73.832727" y="119.740235" style="stroke: #000000; stroke-width: 0.8"/>
      </g>
     </g>
     <g id="text_1">
      <!-- 0 -->
      <g transform="translate(70.651477 134.338673) scale(0.1 -0.1)">
       <defs>
        <path id="DejaVuSans-30" d="M 2034 4250 
Q 1547 4250 1301 3770 
Q 1056 3291 1056 2328 
Q 1056 1369 1301 889 
Q 1547 409 2034 409 
Q 2525 409 2770 889 
Q 3016 1369 3016 2328 
Q 3016 3291 2770 3770 
Q 2525 4250 2034 4250 
z
M 2034 4750 
Q 2819 4750 3233 4129 
Q 3647 3509 3647 2328 
Q 3647 1150 3233 529 
Q 2819 -91 2034 -91 
Q 1250 -91 836 529 
Q 422 1150 422 2328 
Q 422 3509 836 4129 
Q 1250 4750 2034 4750 
z
" transform="scale(0.015625)"/>
       </defs>
       <use xlink:href="#DejaVuSans-30"/>
      </g>
     </g>
    </g>
    <g id="xtick_2">
     <g id="line2d_2">
      <g>
       <use xlink:href="#m3f7c2dd1e5" x="114.288122" y="119.740235" style="stroke: #000000; stroke-width: 0.8"/>
      </g>
     </g>
     <g id="text_2">
      <!-- 200 -->
      <g transform="translate(104.744372 134.338673) scale(0.1 -0.1)">
       <defs>
        <path id="DejaVuSans-32" d="M 1228 531 
L 3431 531 
L 3431 0 
L 469 0 
L 469 531 
Q 828 903 1448 1529 
Q 2069 2156 2228 2338 
Q 2531 2678 2651 2914 
Q 2772 3150 2772 3378 
Q 2772 3750 2511 3984 
Q 2250 4219 1831 4219 
Q 1534 4219 1204 4116 
Q 875 4013 500 3803 
L 500 4441 
Q 881 4594 1212 4672 
Q 1544 4750 1819 4750 
Q 2544 4750 2975 4387 
Q 3406 4025 3406 3419 
Q 3406 3131 3298 2873 
Q 3191 2616 2906 2266 
Q 2828 2175 2409 1742 
Q 1991 1309 1228 531 
z
" transform="scale(0.015625)"/>
       </defs>
       <use xlink:href="#DejaVuSans-32"/>
       <use xlink:href="#DejaVuSans-30" x="63.623047"/>
       <use xlink:href="#DejaVuSans-30" x="127.246094"/>
      </g>
     </g>
    </g>
    <g id="xtick_3">
     <g id="line2d_3">
      <g>
       <use xlink:href="#m3f7c2dd1e5" x="154.743517" y="119.740235" style="stroke: #000000; stroke-width: 0.8"/>
      </g>
     </g>
     <g id="text_3">
      <!-- 400 -->
      <g transform="translate(145.199767 134.338673) scale(0.1 -0.1)">
       <defs>
        <path id="DejaVuSans-34" d="M 2419 4116 
L 825 1625 
L 2419 1625 
L 2419 4116 
z
M 2253 4666 
L 3047 4666 
L 3047 1625 
L 3713 1625 
L 3713 1100 
L 3047 1100 
L 3047 0 
L 2419 0 
L 2419 1100 
L 313 1100 
L 313 1709 
L 2253 4666 
z
" transform="scale(0.015625)"/>
       </defs>
       <use xlink:href="#DejaVuSans-34"/>
       <use xlink:href="#DejaVuSans-30" x="63.623047"/>
       <use xlink:href="#DejaVuSans-30" x="127.246094"/>
      </g>
     </g>
    </g>
    <g id="xtick_4">
     <g id="line2d_4">
      <g>
       <use xlink:href="#m3f7c2dd1e5" x="195.198912" y="119.740235" style="stroke: #000000; stroke-width: 0.8"/>
      </g>
     </g>
     <g id="text_4">
      <!-- 600 -->
      <g transform="translate(185.655162 134.338673) scale(0.1 -0.1)">
       <defs>
        <path id="DejaVuSans-36" d="M 2113 2584 
Q 1688 2584 1439 2293 
Q 1191 2003 1191 1497 
Q 1191 994 1439 701 
Q 1688 409 2113 409 
Q 2538 409 2786 701 
Q 3034 994 3034 1497 
Q 3034 2003 2786 2293 
Q 2538 2584 2113 2584 
z
M 3366 4563 
L 3366 3988 
Q 3128 4100 2886 4159 
Q 2644 4219 2406 4219 
Q 1781 4219 1451 3797 
Q 1122 3375 1075 2522 
Q 1259 2794 1537 2939 
Q 1816 3084 2150 3084 
Q 2853 3084 3261 2657 
Q 3669 2231 3669 1497 
Q 3669 778 3244 343 
Q 2819 -91 2113 -91 
Q 1303 -91 875 529 
Q 447 1150 447 2328 
Q 447 3434 972 4092 
Q 1497 4750 2381 4750 
Q 2619 4750 2861 4703 
Q 3103 4656 3366 4563 
z
" transform="scale(0.015625)"/>
       </defs>
       <use xlink:href="#DejaVuSans-36"/>
       <use xlink:href="#DejaVuSans-30" x="63.623047"/>
       <use xlink:href="#DejaVuSans-30" x="127.246094"/>
      </g>
     </g>
    </g>
    <g id="xtick_5">
     <g id="line2d_5">
      <g>
       <use xlink:href="#m3f7c2dd1e5" x="235.654308" y="119.740235" style="stroke: #000000; stroke-width: 0.8"/>
      </g>
     </g>
     <g id="text_5">
      <!-- 800 -->
      <g transform="translate(226.110558 134.338673) scale(0.1 -0.1)">
       <defs>
        <path id="DejaVuSans-38" d="M 2034 2216 
Q 1584 2216 1326 1975 
Q 1069 1734 1069 1313 
Q 1069 891 1326 650 
Q 1584 409 2034 409 
Q 2484 409 2743 651 
Q 3003 894 3003 1313 
Q 3003 1734 2745 1975 
Q 2488 2216 2034 2216 
z
M 1403 2484 
Q 997 2584 770 2862 
Q 544 3141 544 3541 
Q 544 4100 942 4425 
Q 1341 4750 2034 4750 
Q 2731 4750 3128 4425 
Q 3525 4100 3525 3541 
Q 3525 3141 3298 2862 
Q 3072 2584 2669 2484 
Q 3125 2378 3379 2068 
Q 3634 1759 3634 1313 
Q 3634 634 3220 271 
Q 2806 -91 2034 -91 
Q 1263 -91 848 271 
Q 434 634 434 1313 
Q 434 1759 690 2068 
Q 947 2378 1403 2484 
z
M 1172 3481 
Q 1172 3119 1398 2916 
Q 1625 2713 2034 2713 
Q 2441 2713 2670 2916 
Q 2900 3119 2900 3481 
Q 2900 3844 2670 4047 
Q 2441 4250 2034 4250 
Q 1625 4250 1398 4047 
Q 1172 3844 1172 3481 
z
" transform="scale(0.015625)"/>
       </defs>
       <use xlink:href="#DejaVuSans-38"/>
       <use xlink:href="#DejaVuSans-30" x="63.623047"/>
       <use xlink:href="#DejaVuSans-30" x="127.246094"/>
      </g>
     </g>
    </g>
    <g id="xtick_6">
     <g id="line2d_6">
      <g>
       <use xlink:href="#m3f7c2dd1e5" x="276.109703" y="119.740235" style="stroke: #000000; stroke-width: 0.8"/>
      </g>
     </g>
     <g id="text_6">
      <!-- 1000 -->
      <g transform="translate(263.384703 134.338673) scale(0.1 -0.1)">
       <defs>
        <path id="DejaVuSans-31" d="M 794 531 
L 1825 531 
L 1825 4091 
L 703 3866 
L 703 4441 
L 1819 4666 
L 2450 4666 
L 2450 531 
L 3481 531 
L 3481 0 
L 794 0 
L 794 531 
z
" transform="scale(0.015625)"/>
       </defs>
       <use xlink:href="#DejaVuSans-31"/>
       <use xlink:href="#DejaVuSans-30" x="63.623047"/>
       <use xlink:href="#DejaVuSans-30" x="127.246094"/>
       <use xlink:href="#DejaVuSans-30" x="190.869141"/>
      </g>
     </g>
    </g>
    <g id="xtick_7">
     <g id="line2d_7">
      <g>
       <use xlink:href="#m3f7c2dd1e5" x="316.565098" y="119.740235" style="stroke: #000000; stroke-width: 0.8"/>
      </g>
     </g>
     <g id="text_7">
      <!-- 1200 -->
      <g transform="translate(303.840098 134.338673) scale(0.1 -0.1)">
       <use xlink:href="#DejaVuSans-31"/>
       <use xlink:href="#DejaVuSans-32" x="63.623047"/>
       <use xlink:href="#DejaVuSans-30" x="127.246094"/>
       <use xlink:href="#DejaVuSans-30" x="190.869141"/>
      </g>
     </g>
    </g>
    <g id="xtick_8">
     <g id="line2d_8">
      <g>
       <use xlink:href="#m3f7c2dd1e5" x="357.020493" y="119.740235" style="stroke: #000000; stroke-width: 0.8"/>
      </g>
     </g>
     <g id="text_8">
      <!-- 1400 -->
      <g transform="translate(344.295493 134.338673) scale(0.1 -0.1)">
       <use xlink:href="#DejaVuSans-31"/>
       <use xlink:href="#DejaVuSans-34" x="63.623047"/>
       <use xlink:href="#DejaVuSans-30" x="127.246094"/>
       <use xlink:href="#DejaVuSans-30" x="190.869141"/>
      </g>
     </g>
    </g>
    <g id="xtick_9">
     <g id="line2d_9">
      <g>
       <use xlink:href="#m3f7c2dd1e5" x="397.475888" y="119.740235" style="stroke: #000000; stroke-width: 0.8"/>
      </g>
     </g>
     <g id="text_9">
      <!-- 1600 -->
      <g transform="translate(384.750888 134.338673) scale(0.1 -0.1)">
       <use xlink:href="#DejaVuSans-31"/>
       <use xlink:href="#DejaVuSans-36" x="63.623047"/>
       <use xlink:href="#DejaVuSans-30" x="127.246094"/>
       <use xlink:href="#DejaVuSans-30" x="190.869141"/>
      </g>
     </g>
    </g>
   </g>
   <g id="matplotlib.axis_2">
    <g id="ytick_1">
     <g id="line2d_10">
      <defs>
       <path id="m391fd3e18f" d="M 0 0 
L -3.5 0 
" style="stroke: #000000; stroke-width: 0.8"/>
      </defs>
      <g>
       <use xlink:href="#m391fd3e18f" x="57.6" y="83.583815" style="stroke: #000000; stroke-width: 0.8"/>
      </g>
     </g>
     <g id="text_10">
      <!-- 0 -->
      <g transform="translate(44.2375 87.383034) scale(0.1 -0.1)">
       <use xlink:href="#DejaVuSans-30"/>
      </g>
     </g>
    </g>
    <g id="ytick_2">
     <g id="line2d_11">
      <g>
       <use xlink:href="#m391fd3e18f" x="57.6" y="43.421555" style="stroke: #000000; stroke-width: 0.8"/>
      </g>
     </g>
     <g id="text_11">
      <!-- 50 -->
      <g transform="translate(37.875 47.220773) scale(0.1 -0.1)">
       <defs>
        <path id="DejaVuSans-35" d="M 691 4666 
L 3169 4666 
L 3169 4134 
L 1269 4134 
L 1269 2991 
Q 1406 3038 1543 3061 
Q 1681 3084 1819 3084 
Q 2600 3084 3056 2656 
Q 3513 2228 3513 1497 
Q 3513 744 3044 326 
Q 2575 -91 1722 -91 
Q 1428 -91 1123 -41 
Q 819 9 494 109 
L 494 744 
Q 775 591 1075 516 
Q 1375 441 1709 441 
Q 2250 441 2565 725 
Q 2881 1009 2881 1497 
Q 2881 1984 2565 2268 
Q 2250 2553 1709 2553 
Q 1456 2553 1204 2497 
Q 953 2441 691 2322 
L 691 4666 
z
" transform="scale(0.015625)"/>
       </defs>
       <use xlink:href="#DejaVuSans-35"/>
       <use xlink:href="#DejaVuSans-30" x="63.623047"/>
      </g>
     </g>
    </g>
   </g>
   <g id="line2d_12">
    <path d="M 73.832727 45.252229 
L 74.237281 45.029647 
L 74.439558 45.557671 
L 74.641835 48.094311 
L 75.248666 59.108445 
L 75.65322 62.867265 
L 76.260051 66.316509 
L 77.67599 76.090297 
L 79.091929 82.81917 
L 80.103314 86.922522 
L 81.923806 92.909525 
L 83.542022 96.711477 
L 84.957961 99.377953 
L 87.789839 103.260299 
L 90.217162 105.576449 
L 91.228547 106.309541 
L 92.644486 107.291867 
L 94.262702 108.265237 
L 94.667256 108.556364 
L 96.083195 109.238763 
L 98.105964 110.151583 
L 98.712795 110.434991 
L 99.926457 110.899983 
L 100.331011 110.042526 
L 100.735565 107.612851 
L 101.74695 100.105427 
L 102.151504 98.700855 
L 102.353781 98.513338 
L 102.556058 98.570633 
L 102.960612 99.195185 
L 103.567443 100.532156 
L 103.971997 100.756834 
L 104.174274 100.614209 
L 104.578828 99.923345 
L 105.185658 97.749343 
L 105.792489 96.533279 
L 105.994766 96.489599 
L 106.39932 97.079537 
L 107.410705 100.079264 
L 107.612982 100.289748 
L 107.815259 100.163351 
L 108.219813 99.319257 
L 109.028921 96.892869 
L 109.231198 96.477743 
L 109.433475 96.331898 
L 109.635752 96.397276 
L 110.242583 97.851779 
L 110.849414 99.496613 
L 111.253968 99.868534 
L 111.658522 99.539829 
L 112.46763 97.530388 
L 112.872184 96.74116 
L 113.07446 96.524962 
L 113.276737 96.513981 
L 113.681291 96.963079 
L 114.490399 98.664144 
L 114.894953 99.201757 
L 115.09723 99.188634 
L 115.299507 98.987431 
L 115.906338 97.758907 
L 116.513169 96.464778 
L 116.715446 96.235557 
L 116.917723 96.220403 
L 117.322277 96.641986 
L 118.535939 99.271607 
L 118.738216 99.371381 
L 118.940493 99.314633 
L 119.14277 99.038107 
L 119.749601 97.438974 
L 120.356432 95.752026 
L 120.760986 95.343565 
L 120.963263 95.461667 
L 121.570093 96.927174 
L 122.176924 99.238551 
L 122.581478 99.971783 
L 122.783755 99.941917 
L 123.188309 99.135061 
L 123.997417 96.405093 
L 124.401971 95.540427 
L 124.806525 95.28778 
L 125.211079 95.675486 
L 125.81791 97.12381 
L 126.424741 98.493138 
L 126.627018 98.763563 
L 127.031572 98.772658 
L 127.436126 98.150078 
L 128.649788 95.148392 
L 128.852065 94.982842 
L 129.054342 94.974938 
L 129.256619 95.110274 
L 129.661172 95.860017 
L 130.47028 98.352682 
L 130.874834 99.168762 
L 131.077111 99.200383 
L 131.279388 99.056516 
L 131.683942 98.112376 
L 132.897604 95.445437 
L 133.302158 95.63345 
L 133.706712 96.08096 
L 133.908989 96.728058 
L 134.718097 97.642879 
L 135.122651 97.664745 
L 136.336313 96.780021 
L 137.347698 96.719356 
L 137.954528 96.439731 
L 138.561359 96.469394 
L 139.370467 96.684798 
L 140.179575 96.538917 
L 140.381852 95.273734 
L 140.786406 88.386015 
L 141.19096 85.268497 
L 142.606899 73.604565 
L 143.416007 69.047658 
L 143.820561 66.574135 
L 144.831946 61.338608 
L 145.034223 62.818844 
L 145.438777 69.200416 
L 146.854715 84.127727 
L 147.8661 91.649356 
L 148.675208 96.626601 
L 148.877485 95.169941 
L 149.282039 89.969857 
L 150.293424 79.871078 
L 151.102532 73.993024 
L 151.304809 72.748534 
L 151.507086 72.367496 
L 151.709363 73.587764 
L 153.125302 87.75495 
L 153.327579 89.444211 
L 153.529856 89.937853 
L 154.136686 83.324261 
L 154.54124 79.890075 
L 154.945794 76.578092 
L 155.148071 75.379491 
L 155.350348 75.143449 
L 155.754902 77.445624 
L 156.159456 82.598034 
L 156.968564 88.747002 
L 157.170841 88.461762 
L 157.979949 79.681079 
L 158.58678 75.809913 
L 158.789057 76.27056 
L 158.991334 77.366474 
L 160.002719 87.474959 
L 160.204996 88.136594 
L 160.407273 87.382739 
L 160.60955 85.800581 
L 161.014104 81.663119 
L 161.823212 76.27753 
L 162.025489 76.799165 
L 162.632319 82.114736 
L 163.23915 87.058555 
L 163.441427 87.852388 
L 163.643704 87.315955 
L 163.845981 86.03136 
L 164.452812 80.924116 
L 165.059643 76.93041 
L 165.26192 76.735429 
L 165.868751 80.757567 
L 166.071028 80.628514 
L 166.273305 80.702839 
L 167.082413 82.103008 
L 167.486967 82.649917 
L 167.891521 82.743623 
L 168.093798 82.678813 
L 168.296075 82.492486 
L 168.902906 81.253977 
L 169.30746 81.204503 
L 170.318845 82.034125 
L 171.532506 82.893073 
L 171.734783 82.820101 
L 172.139337 82.142419 
L 172.948445 81.110759 
L 173.555276 81.745257 
L 173.95983 82.401163 
L 174.162107 82.885287 
L 174.566661 83.116538 
L 174.971215 83.292011 
L 175.173492 83.203876 
L 176.184877 80.65833 
L 176.387154 80.72492 
L 176.589431 80.995094 
L 178.00537 85.133522 
L 178.207647 84.841592 
L 178.409924 84.165404 
L 179.421308 78.625167 
L 179.623585 78.549917 
L 180.028139 80.28752 
L 181.241801 88.340954 
L 181.444078 87.837948 
L 182.860017 76.914489 
L 183.062294 76.252294 
L 183.264571 76.527707 
L 183.669125 79.15033 
L 184.478233 85.022795 
L 185.085064 88.898627 
L 185.287341 89.395323 
L 185.489618 88.270596 
L 186.298726 81.914996 
L 187.107833 76.963066 
L 187.31011 76.193985 
L 187.512387 76.180154 
L 187.714664 76.883876 
L 188.321495 81.033376 
L 189.33288 88.132564 
L 189.535157 89.188039 
L 189.737434 89.377464 
L 189.939711 88.195872 
L 190.344265 84.205597 
L 191.35565 77.115654 
L 191.557927 76.190076 
L 191.760204 76.528479 
L 192.367035 81.69271 
L 193.580697 89.705771 
L 193.782974 89.812818 
L 195.198912 78.542857 
L 195.603466 76.402006 
L 195.805743 75.894212 
L 196.00802 76.25873 
L 196.210297 77.514567 
L 196.817128 82.715801 
L 197.019405 83.726733 
L 197.626236 88.363527 
L 197.828513 89.479782 
L 198.03079 89.642551 
L 198.435344 86.114951 
L 199.244452 79.959047 
L 199.851283 76.801625 
L 200.05356 76.430509 
L 200.255837 77.076667 
L 200.458114 78.09643 
L 201.469499 85.562145 
L 202.07633 89.262425 
L 202.278607 88.934662 
L 202.885438 83.659278 
L 203.087715 81.451298 
L 203.289992 80.661499 
L 203.492268 76.741983 
L 203.694545 76.724324 
L 204.70593 81.650083 
L 206.324146 89.915275 
L 206.7287 91.410947 
L 207.335531 94.209542 
L 207.942362 96.363584 
L 208.75147 99.774854 
L 209.156024 100.949487 
L 209.560578 102.466002 
L 212.594732 107.685534 
L 214.010671 109.370088 
L 216.033441 111.005321 
L 216.437995 111.235389 
L 217.44938 111.762127 
L 217.853934 111.948169 
L 218.460765 112.248318 
L 220.281257 112.883427 
L 220.685811 113.063178 
L 221.494919 113.196386 
L 223.719966 114.044214 
L 224.12452 114.33966 
L 225.135905 114.662231 
L 226.14729 115.144741 
L 228.979167 116.138482 
L 229.181444 115.792455 
L 229.383721 114.970645 
L 229.585998 113.563125 
L 230.597383 101.9622 
L 231.204214 97.470042 
L 232.417876 90.021872 
L 232.620153 89.278628 
L 232.82243 89.104943 
L 233.024707 89.455019 
L 233.429261 91.763547 
L 234.036092 96.701124 
L 234.440646 98.415235 
L 234.8452 99.285223 
L 235.047477 99.71218 
L 236.463415 104.478891 
L 236.665692 104.773357 
L 236.867969 104.800185 
L 237.070246 104.601517 
L 237.272523 104.049366 
L 237.677077 101.87877 
L 238.081631 98.944007 
L 238.486185 96.898211 
L 239.093016 95.609056 
L 239.295293 95.618305 
L 239.49757 95.766869 
L 239.902124 96.784836 
L 240.306678 97.956347 
L 240.711232 99.055688 
L 241.115786 99.771674 
L 241.52034 100.022352 
L 241.924894 99.893636 
L 242.734002 99.146239 
L 243.54311 98.288543 
L 243.947664 98.226544 
L 244.554494 98.609211 
L 245.565879 99.546953 
L 245.970433 99.631595 
L 246.17271 99.60152 
L 246.981818 98.999404 
L 247.993203 98.64098 
L 248.600034 99.111763 
L 249.004588 99.40625 
L 249.409142 99.488743 
L 249.813696 99.375574 
L 251.229635 98.268433 
L 251.634189 98.454787 
L 252.84785 99.592976 
L 253.252404 99.580717 
L 253.656958 99.348146 
L 254.466066 98.455985 
L 254.668343 98.761293 
L 255.275174 98.69729 
L 255.477451 97.122055 
L 256.084282 87.640704 
L 256.488836 86.23495 
L 256.691113 85.58874 
L 257.297944 79.849189 
L 257.702498 77.859991 
L 258.107052 75.063898 
L 259.118437 70.633348 
L 259.725268 69.089364 
L 260.332099 67.524673 
L 260.534376 67.140092 
L 260.736653 67.029135 
L 260.938929 67.281863 
L 261.141206 68.281225 
L 261.54576 72.616107 
L 261.950314 78.60184 
L 262.354868 81.621337 
L 262.961699 84.814746 
L 264.579915 93.950574 
L 265.389023 97.402714 
L 265.995854 99.459182 
L 266.602685 101.507573 
L 268.423178 105.571603 
L 270.648224 108.589016 
L 272.468717 110.383011 
L 273.884656 111.542039 
L 274.28921 111.733637 
L 275.300595 112.447993 
L 276.716534 113.400043 
L 277.727918 114.045523 
L 278.334749 114.483206 
L 279.952965 115.600226 
L 280.762073 116.055257 
L 281.166627 115.967862 
L 281.368904 115.661599 
L 281.773458 113.803799 
L 282.178012 112.142216 
L 282.784843 107.473013 
L 284.605336 96.300099 
L 286.021274 89.583479 
L 287.234936 84.631354 
L 287.63949 83.316288 
L 288.448598 80.689078 
L 288.650875 80.693067 
L 289.055429 82.139699 
L 289.864537 85.833701 
L 290.875922 89.171501 
L 291.68503 91.734342 
L 291.887307 92.209118 
L 292.494138 94.267108 
L 293.505523 96.710719 
L 294.516907 98.950511 
L 295.730569 101.30068 
L 296.135123 101.876195 
L 296.741954 103.058445 
L 298.36017 105.58823 
L 298.967001 106.279799 
L 299.169278 106.17296 
L 299.371555 105.88149 
L 299.978386 104.089989 
L 300.38294 102.893761 
L 300.787494 100.341043 
L 301.798879 95.146603 
L 302.607986 92.156753 
L 303.01254 91.558084 
L 303.214817 91.410619 
L 303.417094 91.418276 
L 303.619371 91.561808 
L 304.023925 92.309699 
L 305.03531 95.542066 
L 305.844418 97.498671 
L 306.855803 99.803398 
L 307.462634 100.671906 
L 307.867188 100.876506 
L 308.069465 100.840854 
L 308.474019 100.431351 
L 308.878573 99.811333 
L 309.889958 96.915302 
L 310.294511 94.917501 
L 310.699065 94.211377 
L 310.901342 94.52791 
L 311.103619 95.388082 
L 311.508173 98.067279 
L 312.115004 99.574587 
L 313.126389 100.200124 
L 313.530943 100.135194 
L 313.935497 99.85043 
L 314.542328 98.96712 
L 315.149159 97.566999 
L 315.553713 96.966336 
L 315.958267 96.992039 
L 316.362821 97.484161 
L 317.171929 98.737444 
L 317.576483 98.985229 
L 317.77876 98.940455 
L 318.38559 98.318616 
L 318.790144 97.820517 
L 319.194698 97.633065 
L 319.599252 97.682714 
L 320.003806 97.97014 
L 320.812914 98.738397 
L 321.217468 98.721305 
L 321.824299 98.278765 
L 323.037961 97.201187 
L 323.442515 97.369268 
L 323.847069 97.766511 
L 324.4539 98.497037 
L 324.858454 98.633545 
L 325.060731 98.563434 
L 326.274393 97.41011 
L 326.678946 97.355591 
L 327.0835 97.523368 
L 328.499439 98.480722 
L 328.903993 98.422394 
L 330.117655 97.469531 
L 331.12904 96.637354 
L 331.533594 96.793663 
L 332.140425 97.565602 
L 332.747256 98.260131 
L 332.949533 98.327119 
L 333.354087 98.110124 
L 334.567749 96.537137 
L 334.770025 96.506043 
L 335.174579 96.721996 
L 336.388241 97.876947 
L 336.995072 98.111469 
L 337.197349 98.053792 
L 337.601903 97.562875 
L 338.006457 96.932883 
L 338.613288 96.280471 
L 339.017842 96.492193 
L 339.624673 97.147749 
L 340.029227 97.221222 
L 340.433781 96.928238 
L 340.838335 96.476129 
L 341.242889 96.46169 
L 341.647443 96.728141 
L 342.254274 97.176968 
L 342.658828 97.126785 
L 344.074766 96.634373 
L 345.490705 96.745718 
L 345.895259 96.850762 
L 346.299813 96.601368 
L 347.108921 95.747503 
L 347.311198 95.731365 
L 347.715752 96.066164 
L 348.322583 96.649544 
L 348.727137 96.661925 
L 349.940799 96.338671 
L 350.345353 96.32862 
L 352.165845 95.912969 
L 352.772676 96.143363 
L 353.379507 96.259684 
L 353.784061 96.23483 
L 356.211385 94.959471 
L 356.413662 94.967549 
L 358.234155 96.291193 
L 358.638709 96.27344 
L 359.043263 95.838264 
L 359.85237 94.421753 
L 360.054647 94.368084 
L 360.256924 94.470236 
L 360.863755 95.468092 
L 361.268309 95.934347 
L 361.470586 95.963365 
L 362.077417 95.60164 
L 363.088802 94.793584 
L 363.493356 94.758376 
L 364.504741 94.869875 
L 365.516126 94.493767 
L 365.92068 94.304926 
L 366.325234 94.445148 
L 367.336619 95.380662 
L 367.538895 95.170749 
L 367.943449 94.565496 
L 368.145726 94.418736 
L 368.55028 94.567745 
L 368.954834 94.749696 
L 369.561665 94.681812 
L 370.775327 94.091327 
L 371.382158 93.578135 
L 371.988989 93.008966 
L 372.59582 92.760173 
L 373.202651 92.841556 
L 375.629975 93.691846 
L 376.439082 93.301259 
L 377.652744 92.300028 
L 379.068683 91.008962 
L 379.675514 90.896493 
L 380.080068 91.036926 
L 380.686899 91.522622 
L 382.305115 93.086582 
L 382.911946 93.579616 
L 383.3165 93.684986 
L 384.125607 93.635416 
L 384.530161 93.430365 
L 384.934715 93.017428 
L 386.148377 90.766047 
L 386.552931 90.187795 
L 387.362039 88.972726 
L 387.96887 88.464544 
L 388.575701 88.392715 
L 389.182532 88.553672 
L 389.789363 89.048218 
L 390.396194 89.620886 
L 391.812133 90.251751 
L 392.418963 89.987292 
L 393.025794 89.113827 
L 394.239456 86.86165 
L 395.048564 84.954769 
L 395.453118 84.082247 
L 397.678165 77.904986 
L 398.082719 76.389709 
L 398.284996 76.748515 
L 398.487273 78.614368 
L 398.487273 78.614368 
" clip-path="url(#peb03f3868a)" style="fill: none; stroke: #1f77b4; stroke-width: 1.5; stroke-linecap: square"/>
   </g>
   <g id="patch_3">
    <path d="M 57.6 119.740235 
L 57.6 41.472 
" style="fill: none; stroke: #000000; stroke-width: 0.8; stroke-linejoin: miter; stroke-linecap: square"/>
   </g>
   <g id="patch_4">
    <path d="M 414.72 119.740235 
L 414.72 41.472 
" style="fill: none; stroke: #000000; stroke-width: 0.8; stroke-linejoin: miter; stroke-linecap: square"/>
   </g>
   <g id="patch_5">
    <path d="M 57.6 119.740235 
L 414.72 119.740235 
" style="fill: none; stroke: #000000; stroke-width: 0.8; stroke-linejoin: miter; stroke-linecap: square"/>
   </g>
   <g id="patch_6">
    <path d="M 57.6 41.472 
L 414.72 41.472 
" style="fill: none; stroke: #000000; stroke-width: 0.8; stroke-linejoin: miter; stroke-linecap: square"/>
   </g>
   <g id="legend_1">
    <g id="patch_7">
     <path d="M 360.255938 64.150125 
L 407.72 64.150125 
Q 409.72 64.150125 409.72 62.150125 
L 409.72 48.472 
Q 409.72 46.472 407.72 46.472 
L 360.255938 46.472 
Q 358.255938 46.472 358.255938 48.472 
L 358.255938 62.150125 
Q 358.255938 64.150125 360.255938 64.150125 
z
" style="fill: #ffffff; opacity: 0.8; stroke: #cccccc; stroke-linejoin: miter"/>
    </g>
    <g id="line2d_13">
     <path d="M 362.255938 54.570438 
L 372.255938 54.570438 
L 382.255938 54.570438 
" style="fill: none; stroke: #1f77b4; stroke-width: 1.5; stroke-linecap: square"/>
    </g>
    <g id="text_12">
     <!-- phi -->
     <g transform="translate(390.255938 58.070438) scale(0.1 -0.1)">
      <defs>
       <path id="DejaVuSans-70" d="M 1159 525 
L 1159 -1331 
L 581 -1331 
L 581 3500 
L 1159 3500 
L 1159 2969 
Q 1341 3281 1617 3432 
Q 1894 3584 2278 3584 
Q 2916 3584 3314 3078 
Q 3713 2572 3713 1747 
Q 3713 922 3314 415 
Q 2916 -91 2278 -91 
Q 1894 -91 1617 61 
Q 1341 213 1159 525 
z
M 3116 1747 
Q 3116 2381 2855 2742 
Q 2594 3103 2138 3103 
Q 1681 3103 1420 2742 
Q 1159 2381 1159 1747 
Q 1159 1113 1420 752 
Q 1681 391 2138 391 
Q 2594 391 2855 752 
Q 3116 1113 3116 1747 
z
" transform="scale(0.015625)"/>
       <path id="DejaVuSans-68" d="M 3513 2113 
L 3513 0 
L 2938 0 
L 2938 2094 
Q 2938 2591 2744 2837 
Q 2550 3084 2163 3084 
Q 1697 3084 1428 2787 
Q 1159 2491 1159 1978 
L 1159 0 
L 581 0 
L 581 4863 
L 1159 4863 
L 1159 2956 
Q 1366 3272 1645 3428 
Q 1925 3584 2291 3584 
Q 2894 3584 3203 3211 
Q 3513 2838 3513 2113 
z
" transform="scale(0.015625)"/>
       <path id="DejaVuSans-69" d="M 603 3500 
L 1178 3500 
L 1178 0 
L 603 0 
L 603 3500 
z
M 603 4863 
L 1178 4863 
L 1178 4134 
L 603 4134 
L 603 4863 
z
" transform="scale(0.015625)"/>
      </defs>
      <use xlink:href="#DejaVuSans-70"/>
      <use xlink:href="#DejaVuSans-68" x="63.476562"/>
      <use xlink:href="#DejaVuSans-69" x="126.855469"/>
     </g>
    </g>
   </g>
  </g>
  <g id="axes_2">
   <g id="patch_8">
    <path d="M 57.6 213.662118 
L 414.72 213.662118 
L 414.72 135.393882 
L 57.6 135.393882 
z
" style="fill: #ffffff"/>
   </g>
   <g id="matplotlib.axis_3">
    <g id="xtick_10">
     <g id="line2d_14">
      <g>
       <use xlink:href="#m3f7c2dd1e5" x="73.832727" y="213.662118" style="stroke: #000000; stroke-width: 0.8"/>
      </g>
     </g>
     <g id="text_13">
      <!-- 0 -->
      <g transform="translate(70.651477 228.260555) scale(0.1 -0.1)">
       <use xlink:href="#DejaVuSans-30"/>
      </g>
     </g>
    </g>
    <g id="xtick_11">
     <g id="line2d_15">
      <g>
       <use xlink:href="#m3f7c2dd1e5" x="114.288122" y="213.662118" style="stroke: #000000; stroke-width: 0.8"/>
      </g>
     </g>
     <g id="text_14">
      <!-- 200 -->
      <g transform="translate(104.744372 228.260555) scale(0.1 -0.1)">
       <use xlink:href="#DejaVuSans-32"/>
       <use xlink:href="#DejaVuSans-30" x="63.623047"/>
       <use xlink:href="#DejaVuSans-30" x="127.246094"/>
      </g>
     </g>
    </g>
    <g id="xtick_12">
     <g id="line2d_16">
      <g>
       <use xlink:href="#m3f7c2dd1e5" x="154.743517" y="213.662118" style="stroke: #000000; stroke-width: 0.8"/>
      </g>
     </g>
     <g id="text_15">
      <!-- 400 -->
      <g transform="translate(145.199767 228.260555) scale(0.1 -0.1)">
       <use xlink:href="#DejaVuSans-34"/>
       <use xlink:href="#DejaVuSans-30" x="63.623047"/>
       <use xlink:href="#DejaVuSans-30" x="127.246094"/>
      </g>
     </g>
    </g>
    <g id="xtick_13">
     <g id="line2d_17">
      <g>
       <use xlink:href="#m3f7c2dd1e5" x="195.198912" y="213.662118" style="stroke: #000000; stroke-width: 0.8"/>
      </g>
     </g>
     <g id="text_16">
      <!-- 600 -->
      <g transform="translate(185.655162 228.260555) scale(0.1 -0.1)">
       <use xlink:href="#DejaVuSans-36"/>
       <use xlink:href="#DejaVuSans-30" x="63.623047"/>
       <use xlink:href="#DejaVuSans-30" x="127.246094"/>
      </g>
     </g>
    </g>
    <g id="xtick_14">
     <g id="line2d_18">
      <g>
       <use xlink:href="#m3f7c2dd1e5" x="235.654308" y="213.662118" style="stroke: #000000; stroke-width: 0.8"/>
      </g>
     </g>
     <g id="text_17">
      <!-- 800 -->
      <g transform="translate(226.110558 228.260555) scale(0.1 -0.1)">
       <use xlink:href="#DejaVuSans-38"/>
       <use xlink:href="#DejaVuSans-30" x="63.623047"/>
       <use xlink:href="#DejaVuSans-30" x="127.246094"/>
      </g>
     </g>
    </g>
    <g id="xtick_15">
     <g id="line2d_19">
      <g>
       <use xlink:href="#m3f7c2dd1e5" x="276.109703" y="213.662118" style="stroke: #000000; stroke-width: 0.8"/>
      </g>
     </g>
     <g id="text_18">
      <!-- 1000 -->
      <g transform="translate(263.384703 228.260555) scale(0.1 -0.1)">
       <use xlink:href="#DejaVuSans-31"/>
       <use xlink:href="#DejaVuSans-30" x="63.623047"/>
       <use xlink:href="#DejaVuSans-30" x="127.246094"/>
       <use xlink:href="#DejaVuSans-30" x="190.869141"/>
      </g>
     </g>
    </g>
    <g id="xtick_16">
     <g id="line2d_20">
      <g>
       <use xlink:href="#m3f7c2dd1e5" x="316.565098" y="213.662118" style="stroke: #000000; stroke-width: 0.8"/>
      </g>
     </g>
     <g id="text_19">
      <!-- 1200 -->
      <g transform="translate(303.840098 228.260555) scale(0.1 -0.1)">
       <use xlink:href="#DejaVuSans-31"/>
       <use xlink:href="#DejaVuSans-32" x="63.623047"/>
       <use xlink:href="#DejaVuSans-30" x="127.246094"/>
       <use xlink:href="#DejaVuSans-30" x="190.869141"/>
      </g>
     </g>
    </g>
    <g id="xtick_17">
     <g id="line2d_21">
      <g>
       <use xlink:href="#m3f7c2dd1e5" x="357.020493" y="213.662118" style="stroke: #000000; stroke-width: 0.8"/>
      </g>
     </g>
     <g id="text_20">
      <!-- 1400 -->
      <g transform="translate(344.295493 228.260555) scale(0.1 -0.1)">
       <use xlink:href="#DejaVuSans-31"/>
       <use xlink:href="#DejaVuSans-34" x="63.623047"/>
       <use xlink:href="#DejaVuSans-30" x="127.246094"/>
       <use xlink:href="#DejaVuSans-30" x="190.869141"/>
      </g>
     </g>
    </g>
    <g id="xtick_18">
     <g id="line2d_22">
      <g>
       <use xlink:href="#m3f7c2dd1e5" x="397.475888" y="213.662118" style="stroke: #000000; stroke-width: 0.8"/>
      </g>
     </g>
     <g id="text_21">
      <!-- 1600 -->
      <g transform="translate(384.750888 228.260555) scale(0.1 -0.1)">
       <use xlink:href="#DejaVuSans-31"/>
       <use xlink:href="#DejaVuSans-36" x="63.623047"/>
       <use xlink:href="#DejaVuSans-30" x="127.246094"/>
       <use xlink:href="#DejaVuSans-30" x="190.869141"/>
      </g>
     </g>
    </g>
   </g>
   <g id="matplotlib.axis_4">
    <g id="ytick_3">
     <g id="line2d_23">
      <g>
       <use xlink:href="#m391fd3e18f" x="57.6" y="207.612989" style="stroke: #000000; stroke-width: 0.8"/>
      </g>
     </g>
     <g id="text_22">
      <!-- −10 -->
      <g transform="translate(29.495313 211.412207) scale(0.1 -0.1)">
       <defs>
        <path id="DejaVuSans-2212" d="M 678 2272 
L 4684 2272 
L 4684 1741 
L 678 1741 
L 678 2272 
z
" transform="scale(0.015625)"/>
       </defs>
       <use xlink:href="#DejaVuSans-2212"/>
       <use xlink:href="#DejaVuSans-31" x="83.789062"/>
       <use xlink:href="#DejaVuSans-30" x="147.412109"/>
      </g>
     </g>
    </g>
    <g id="ytick_4">
     <g id="line2d_24">
      <g>
       <use xlink:href="#m391fd3e18f" x="57.6" y="173.79714" style="stroke: #000000; stroke-width: 0.8"/>
      </g>
     </g>
     <g id="text_23">
      <!-- 0 -->
      <g transform="translate(44.2375 177.596359) scale(0.1 -0.1)">
       <use xlink:href="#DejaVuSans-30"/>
      </g>
     </g>
    </g>
    <g id="ytick_5">
     <g id="line2d_25">
      <g>
       <use xlink:href="#m391fd3e18f" x="57.6" y="139.981292" style="stroke: #000000; stroke-width: 0.8"/>
      </g>
     </g>
     <g id="text_24">
      <!-- 10 -->
      <g transform="translate(37.875 143.780511) scale(0.1 -0.1)">
       <use xlink:href="#DejaVuSans-31"/>
       <use xlink:href="#DejaVuSans-30" x="63.623047"/>
      </g>
     </g>
    </g>
   </g>
   <g id="line2d_26">
    <path d="M 73.832727 177.783359 
L 74.035004 177.954663 
L 74.237281 177.949146 
L 74.439558 176.362094 
L 74.844112 171.562456 
L 75.046389 172.291763 
L 75.450943 175.475198 
L 75.65322 175.880433 
L 76.057774 174.690296 
L 76.462328 172.935045 
L 77.67599 166.234022 
L 78.080544 165.278654 
L 78.687375 164.456181 
L 78.889652 164.292675 
L 79.294206 163.654592 
L 79.496483 163.562466 
L 79.901037 162.911587 
L 80.507867 162.447695 
L 80.912421 161.914371 
L 81.316975 161.866479 
L 82.530637 162.036346 
L 83.137468 162.743732 
L 83.339745 162.755189 
L 83.542022 162.948087 
L 85.160238 165.78324 
L 85.564792 166.969374 
L 85.969346 168.046119 
L 86.980731 170.393064 
L 87.385285 170.824609 
L 87.789839 171.335244 
L 87.992116 171.365407 
L 88.194393 171.271568 
L 88.396669 171.40117 
L 88.801223 172.147603 
L 89.610331 172.771648 
L 90.014885 173.253684 
L 90.419439 173.68819 
L 90.621716 174.03327 
L 91.02627 174.181322 
L 91.228547 174.216489 
L 92.442209 175.760353 
L 92.846763 176.154879 
L 93.251317 176.430299 
L 93.655871 176.8356 
L 94.262702 177.196207 
L 94.667256 178.05206 
L 95.07181 178.412307 
L 95.274087 178.473262 
L 95.678641 178.372557 
L 96.285472 179.068736 
L 96.690025 178.963523 
L 97.296856 179.553949 
L 97.70141 179.811084 
L 98.308241 180.492576 
L 99.117349 181.038173 
L 99.319626 180.961868 
L 99.521903 181.175557 
L 99.926457 181.847356 
L 100.128734 182.089445 
L 100.331011 182.018696 
L 100.533288 181.621691 
L 100.735565 180.780886 
L 101.342396 176.613782 
L 101.74695 173.208101 
L 102.151504 171.479005 
L 102.556058 171.526911 
L 102.758335 171.736359 
L 103.162889 172.701481 
L 103.76972 173.962683 
L 104.174274 174.239967 
L 104.578828 174.134914 
L 105.792489 170.756264 
L 105.994766 170.571589 
L 106.197043 170.786754 
L 106.39932 171.209431 
L 107.410705 174.492168 
L 107.612982 174.762309 
L 107.815259 174.675728 
L 108.42209 173.773629 
L 108.624367 173.23989 
L 109.028921 171.878096 
L 109.433475 171.495987 
L 109.635752 171.620766 
L 110.242583 172.757782 
L 110.849414 174.402853 
L 111.253968 175.1994 
L 111.456245 175.196327 
L 111.658522 174.879869 
L 112.265353 173.367399 
L 112.872184 172.431304 
L 113.07446 172.35024 
L 113.479014 172.725975 
L 113.681291 172.687046 
L 113.883568 172.939699 
L 114.692676 175.068717 
L 115.09723 175.107508 
L 115.299507 174.935891 
L 115.906338 174.060141 
L 116.513169 173.292289 
L 116.917723 172.921692 
L 117.12 172.868066 
L 117.322277 173.014621 
L 117.929108 174.413009 
L 118.333662 175.330972 
L 118.738216 175.894105 
L 119.14277 175.701555 
L 119.749601 174.59442 
L 120.154155 173.779811 
L 120.760986 172.718854 
L 120.963263 172.711902 
L 121.367816 173.416358 
L 121.77237 174.632832 
L 122.783755 177.105757 
L 123.188309 176.508942 
L 123.997417 174.30045 
L 124.806525 173.327343 
L 125.211079 173.538416 
L 125.413356 174.032972 
L 125.81791 175.214045 
L 126.424741 176.234385 
L 126.627018 176.27861 
L 127.233849 175.996206 
L 127.638403 175.694157 
L 128.042957 174.923256 
L 128.447511 173.994649 
L 128.649788 173.679207 
L 128.852065 173.584116 
L 129.054342 173.642102 
L 129.661172 174.358614 
L 130.874834 177.388195 
L 131.077111 177.618235 
L 131.279388 177.546627 
L 131.886219 176.482409 
L 132.49305 174.474589 
L 132.695327 174.23421 
L 132.897604 174.170497 
L 133.302158 174.468028 
L 133.706712 174.948652 
L 134.111266 176.162867 
L 134.313543 176.626336 
L 135.122651 176.982784 
L 135.324928 176.806616 
L 135.931759 175.722369 
L 136.336313 175.533466 
L 137.347698 175.983035 
L 137.752251 175.755368 
L 138.359082 175.765907 
L 138.965913 176.016907 
L 139.370467 176.361847 
L 139.977298 176.711375 
L 140.381852 176.661246 
L 140.584129 177.106135 
L 140.786406 176.785441 
L 140.988683 176.69107 
L 141.19096 178.043879 
L 141.393237 178.430914 
L 141.595514 177.255851 
L 141.797791 177.286909 
L 142.000068 178.121206 
L 142.202345 178.311556 
L 142.404622 177.959425 
L 143.011453 180.06119 
L 143.21373 180.469034 
L 143.416007 181.688787 
L 143.618284 178.168958 
L 144.022838 182.448686 
L 144.225115 183.344008 
L 144.629669 187.988316 
L 145.2365 187.052785 
L 145.641054 188.427305 
L 145.843331 187.713216 
L 146.045607 186.29275 
L 146.450161 188.90122 
L 146.854715 185.575306 
L 147.259269 184.236674 
L 147.461546 184.062316 
L 147.8661 184.048491 
L 148.068377 184.144553 
L 148.472931 184.60975 
L 148.877485 184.979262 
L 149.079762 185.509036 
L 149.484316 184.661149 
L 149.686593 184.228153 
L 149.88887 184.842521 
L 150.091147 184.491218 
L 150.900255 189.00318 
L 151.304809 188.724362 
L 151.709363 186.404686 
L 152.316194 184.540002 
L 152.923025 184.007418 
L 153.125302 183.950632 
L 153.327579 184.055662 
L 153.529856 184.885183 
L 153.93441 185.416917 
L 154.136686 184.72604 
L 154.338963 184.978137 
L 154.743517 185.914488 
L 154.945794 185.935468 
L 155.148071 185.403048 
L 155.350348 185.734603 
L 155.552625 187.544721 
L 155.754902 188.266302 
L 155.957179 189.499486 
L 156.159456 189.665797 
L 156.56401 185.682557 
L 156.766287 184.844055 
L 157.170841 184.319104 
L 157.575395 184.062301 
L 157.979949 184.09455 
L 158.182226 184.147494 
L 158.384503 184.644848 
L 158.58678 186.605188 
L 158.789057 187.260738 
L 159.193611 185.580842 
L 159.598165 187.04925 
L 160.002719 184.829858 
L 160.204996 184.386424 
L 160.60955 184.181454 
L 160.811827 184.755599 
L 161.014104 184.50072 
L 161.216381 185.940651 
L 161.418658 185.426961 
L 161.620935 186.234851 
L 161.823212 187.749208 
L 162.025489 188.092603 
L 162.834596 184.60931 
L 163.23915 184.127118 
L 163.845981 184.030184 
L 164.048258 184.676829 
L 164.250535 185.843224 
L 164.452812 186.131811 
L 165.059643 189.172147 
L 165.666474 185.509626 
L 165.868751 184.887307 
L 166.475582 184.294156 
L 166.677859 184.967006 
L 166.880136 184.842808 
L 167.28469 185.138165 
L 167.486967 185.196377 
L 167.689244 185.377471 
L 167.891521 186.352692 
L 168.093798 186.199473 
L 168.498352 185.022653 
L 169.105183 184.366009 
L 169.712014 187.257924 
L 169.914291 187.101389 
L 170.116568 188.149794 
L 170.318845 188.283707 
L 170.723398 186.128905 
L 171.127952 184.75945 
L 171.532506 184.356235 
L 171.734783 184.208268 
L 172.139337 185.729614 
L 172.746168 188.382791 
L 173.150722 186.977812 
L 173.352999 186.491584 
L 173.757553 184.993817 
L 174.162107 184.352014 
L 174.566661 184.07974 
L 175.375769 183.979385 
L 175.780323 184.999611 
L 175.9826 185.14012 
L 176.387154 184.600386 
L 177.398539 187.900993 
L 177.600816 188.140244 
L 178.00537 189.883904 
L 178.612201 186.177385 
L 179.016754 184.974978 
L 179.421308 184.4927 
L 180.230416 184.189145 
L 181.039524 183.970013 
L 181.241801 183.995397 
L 181.646355 185.90878 
L 182.253186 184.584044 
L 182.455463 184.42264 
L 182.860017 186.386501 
L 183.062294 187.009716 
L 183.264571 188.032902 
L 183.466848 188.37635 
L 184.073679 185.56107 
L 184.478233 184.61477 
L 184.68051 184.346858 
L 184.882787 184.652074 
L 185.287341 186.908046 
L 185.489618 187.812481 
L 185.691895 187.559502 
L 185.894172 187.683467 
L 186.298726 185.695284 
L 186.70328 184.843672 
L 187.107833 184.5821 
L 187.916941 184.488111 
L 188.119218 184.829246 
L 188.928326 188.125911 
L 189.130603 187.861848 
L 189.33288 187.266274 
L 189.737434 185.485729 
L 190.141988 184.559794 
L 190.546542 184.234636 
L 190.951096 184.089902 
L 191.35565 184.16183 
L 191.557927 185.841972 
L 191.760204 186.068318 
L 191.962481 186.791333 
L 192.164758 186.960528 
L 192.569312 185.50217 
L 192.771589 186.059103 
L 192.973866 185.529715 
L 193.176143 185.905483 
L 193.985251 184.454488 
L 194.389805 184.157012 
L 194.794359 184.103492 
L 195.198912 185.23265 
L 195.805743 186.467969 
L 196.00802 186.094431 
L 196.614851 188.67448 
L 196.817128 188.751812 
L 197.019405 188.610755 
L 197.626236 185.212 
L 198.03079 184.602606 
L 198.233067 185.00232 
L 198.435344 185.670102 
L 198.839898 184.790994 
L 199.244452 186.584506 
L 199.446729 187.090166 
L 199.649006 187.182171 
L 200.255837 185.466834 
L 200.862668 184.513449 
L 201.064945 184.400714 
L 201.469499 186.678761 
L 201.874053 188.185738 
L 202.278607 185.881345 
L 202.683161 184.717161 
L 203.289992 184.155376 
L 203.492268 185.586349 
L 203.694545 185.323502 
L 204.099099 183.635412 
L 204.908207 179.590945 
L 205.312761 177.122013 
L 205.515038 176.371406 
L 205.919592 174.022951 
L 206.121869 173.258992 
L 206.526423 171.290833 
L 207.537808 167.360172 
L 208.953747 164.120307 
L 209.358301 163.712949 
L 210.167409 163.693543 
L 211.987901 165.693164 
L 212.594732 166.822081 
L 212.999286 167.634162 
L 213.201563 167.658305 
L 213.40384 166.834619 
L 213.606117 165.489432 
L 213.808394 165.528245 
L 214.212948 166.158892 
L 214.617502 166.156809 
L 214.819779 166.447613 
L 215.022056 166.977123 
L 215.224333 167.1229 
L 215.42661 167.46005 
L 216.437995 170.168286 
L 216.640272 170.384561 
L 216.842549 170.843155 
L 217.44938 173.108051 
L 217.853934 173.630324 
L 219.47215 179.581597 
L 219.876703 180.413528 
L 220.483534 182.561078 
L 220.888088 183.940156 
L 221.292642 185.327166 
L 221.697196 185.594066 
L 222.304027 186.578723 
L 222.910858 188.103208 
L 223.517689 189.022101 
L 223.719966 189.246374 
L 224.12452 190.515236 
L 224.731351 191.223803 
L 225.338182 192.682644 
L 226.14729 193.915073 
L 226.551844 194.930556 
L 226.754121 195.271353 
L 227.158675 196.27515 
L 227.563229 196.820591 
L 228.77689 198.506949 
L 229.181444 199.166179 
L 229.383721 199.15108 
L 229.585998 198.78408 
L 229.990552 195.894407 
L 232.82243 163.951143 
L 233.024707 162.790224 
L 233.226984 162.542242 
L 233.429261 163.009915 
L 234.238369 168.339754 
L 234.440646 168.473236 
L 234.642923 168.439644 
L 235.047477 168.2082 
L 235.249754 168.245205 
L 235.452031 168.571431 
L 235.856585 169.965683 
L 236.463415 172.078318 
L 236.665692 172.51309 
L 236.867969 172.658382 
L 237.070246 172.556559 
L 237.272523 172.19595 
L 237.677077 170.430455 
L 238.283908 166.736409 
L 238.486185 165.97586 
L 238.688462 165.734186 
L 239.295293 165.667404 
L 239.49757 165.914293 
L 239.699847 166.412207 
L 240.306678 168.362398 
L 240.711232 169.336972 
L 241.318063 170.426483 
L 241.722617 170.575812 
L 242.127171 170.181374 
L 242.531725 169.878153 
L 243.340833 169.639491 
L 243.947664 169.339978 
L 244.352218 169.389472 
L 244.959048 170.384632 
L 245.363602 170.583703 
L 245.768156 170.805961 
L 245.970433 170.866006 
L 246.17271 171.093443 
L 246.577264 171.030406 
L 247.588649 170.340907 
L 247.993203 170.441641 
L 248.397757 170.218041 
L 248.600034 170.351921 
L 249.004588 170.993671 
L 249.206865 171.156584 
L 249.409142 171.143713 
L 250.015973 171.496076 
L 250.825081 170.148817 
L 251.431912 170.266635 
L 251.634189 170.438999 
L 252.24102 171.611983 
L 252.645573 171.731806 
L 253.656958 171.925456 
L 254.263789 171.038253 
L 254.466066 171.036575 
L 254.668343 171.93102 
L 254.87062 172.092767 
L 255.275174 172.983346 
L 255.477451 172.039731 
L 256.084282 161.264187 
L 256.286559 160.970788 
L 256.691113 159.453976 
L 257.095667 152.938337 
L 257.702498 148.710659 
L 258.107052 145.156158 
L 258.511606 143.359472 
L 258.91616 140.729235 
L 259.320714 140.012178 
L 259.725268 138.951529 
L 259.927545 138.999435 
L 260.129822 139.258677 
L 260.938929 141.591657 
L 261.141206 143.310393 
L 261.54576 149.676777 
L 261.950314 156.535803 
L 262.354868 159.045128 
L 262.759422 160.975364 
L 263.366253 166.361702 
L 263.770807 168.473935 
L 264.175361 168.997985 
L 264.377638 168.974694 
L 265.186746 169.805301 
L 265.389023 169.893657 
L 267.209516 173.316565 
L 267.61407 173.589402 
L 268.018624 174.596565 
L 268.220901 174.846613 
L 268.423178 175.677758 
L 269.030008 176.886072 
L 269.839116 179.96593 
L 270.648224 182.753341 
L 271.861886 187.452452 
L 272.26644 189.136172 
L 272.670994 190.491597 
L 273.075548 192.200662 
L 273.682379 194.67804 
L 273.884656 195.74543 
L 274.28921 196.559339 
L 274.693764 197.725255 
L 274.896041 198.098885 
L 275.098318 198.947681 
L 275.502872 199.331802 
L 277.323364 203.081938 
L 278.739303 205.793931 
L 278.94158 205.931356 
L 279.346134 206.717692 
L 279.952965 207.830939 
L 280.155242 208.057164 
L 280.559796 209.265819 
L 280.96435 209.873357 
L 281.166627 210.104471 
L 281.368904 208.743811 
L 281.571181 204.468072 
L 283.391674 193.928469 
L 283.998505 191.17188 
L 284.605336 188.629659 
L 288.448598 172.869629 
L 288.853152 172.057707 
L 289.055429 171.940531 
L 290.471368 172.136042 
L 291.482753 172.507572 
L 292.291861 173.036306 
L 293.100969 173.727369 
L 294.112353 174.502735 
L 294.719184 175.025901 
L 298.157893 178.230779 
L 299.169278 179.586336 
L 299.573832 179.88891 
L 299.978386 179.764961 
L 300.38294 179.577755 
L 300.989771 178.464162 
L 301.394325 177.594271 
L 302.607986 174.622666 
L 303.01254 174.101882 
L 303.417094 173.784208 
L 303.821648 173.719768 
L 304.226202 173.927266 
L 304.833033 174.465605 
L 305.439864 174.929171 
L 306.046695 175.33898 
L 307.462634 176.30765 
L 308.069465 176.426232 
L 308.676296 176.445773 
L 309.08085 176.152531 
L 309.283127 175.953761 
L 309.485404 174.604526 
L 309.889958 168.517798 
L 310.092234 164.555225 
L 310.294511 163.268349 
L 310.496788 163.06459 
L 310.699065 163.287776 
L 310.901342 163.676663 
L 311.103619 164.342048 
L 311.912727 169.441216 
L 312.317281 169.890644 
L 312.519558 170.056217 
L 312.721835 170.021905 
L 313.126389 169.676387 
L 313.328666 169.708351 
L 313.530943 169.999827 
L 313.73322 170.002853 
L 314.542328 169.147901 
L 314.946882 168.509726 
L 315.351436 168.147178 
L 315.553713 168.09221 
L 315.958267 168.342414 
L 316.160544 168.641872 
L 316.767375 170.177663 
L 317.171929 170.918156 
L 317.77876 171.48661 
L 318.183314 171.254685 
L 318.790144 170.560416 
L 319.801529 170.897416 
L 320.610637 171.910428 
L 321.015191 172.367409 
L 322.026576 171.983466 
L 322.228853 172.003407 
L 323.037961 171.600134 
L 323.442515 172.028954 
L 324.049346 172.572512 
L 324.251623 172.782705 
L 324.858454 173.759083 
L 325.060731 173.922316 
L 325.465285 173.394694 
L 326.072116 172.802511 
L 326.476669 172.731759 
L 326.881223 172.960839 
L 327.892608 174.083092 
L 328.094885 174.071801 
L 328.903993 174.468237 
L 329.510824 174.12294 
L 329.915378 174.143998 
L 330.522209 173.928509 
L 330.926763 173.717929 
L 331.12904 173.57226 
L 331.533594 173.671133 
L 332.342702 174.88105 
L 333.15181 175.539939 
L 333.556364 175.38793 
L 334.365472 174.238519 
L 334.567749 174.129768 
L 334.770025 174.204519 
L 335.78141 175.305892 
L 336.185964 175.846061 
L 337.197349 176.300738 
L 337.399626 176.271387 
L 338.613288 174.660842 
L 339.422396 175.849149 
L 340.029227 176.816219 
L 340.433781 176.798636 
L 341.040612 176.058101 
L 341.647443 176.119413 
L 342.658828 177.472625 
L 343.063381 177.115775 
L 343.670212 177.204584 
L 344.074766 176.845304 
L 344.277043 176.860591 
L 344.883874 177.475761 
L 345.692982 177.319273 
L 346.50209 177.866017 
L 347.108921 176.874958 
L 347.311198 176.905685 
L 348.322583 178.26119 
L 348.52486 178.29048 
L 348.929414 178.176708 
L 349.131691 178.328828 
L 349.333968 178.300972 
L 349.738522 178.144169 
L 350.54763 178.298495 
L 351.356737 178.123769 
L 351.761291 178.415744 
L 352.165845 178.259777 
L 352.570399 178.412323 
L 353.379507 179.231252 
L 354.188615 178.970314 
L 354.795446 178.366564 
L 354.997723 178.358522 
L 355.402277 178.681001 
L 355.806831 178.829004 
L 356.211385 178.724299 
L 356.615939 178.873189 
L 357.425047 179.912983 
L 357.627324 179.897663 
L 357.829601 179.724291 
L 358.031878 179.778433 
L 358.436432 180.139517 
L 358.638709 180.224554 
L 358.840986 180.430855 
L 359.043263 180.471002 
L 360.054647 178.940401 
L 360.459201 179.177795 
L 361.066032 180.851831 
L 361.470586 181.097679 
L 361.672863 181.132193 
L 362.279694 180.766123 
L 362.481971 180.555351 
L 362.886525 180.606131 
L 363.493356 180.464661 
L 363.695633 180.459184 
L 364.504741 181.001871 
L 364.909295 180.815639 
L 365.516126 181.017886 
L 366.122957 180.805625 
L 366.325234 180.970552 
L 367.134342 182.337429 
L 367.336619 181.770157 
L 367.741172 177.343856 
L 368.145726 178.66928 
L 369.157111 181.167514 
L 369.966219 182.275047 
L 371.382158 183.430049 
L 371.988989 183.807711 
L 372.59582 184.000713 
L 374.011759 185.062017 
L 376.034528 187.249109 
L 376.843636 187.85069 
L 377.24819 188.069768 
L 377.855021 188.141845 
L 379.068683 187.659516 
L 379.877791 187.240869 
L 380.282345 187.058282 
L 380.889176 186.813256 
L 381.29373 186.805409 
L 382.911946 186.548753 
L 383.923331 186.392416 
L 384.327884 186.165683 
L 385.743823 185.088274 
L 386.755208 183.961499 
L 388.171147 182.642402 
L 389.384809 182.062243 
L 389.99164 181.983822 
L 390.396194 182.053831 
L 392.01441 182.565981 
L 393.025794 182.641339 
L 393.834902 182.509738 
L 394.441733 182.251648 
L 396.66678 181.166686 
L 397.678165 180.963638 
L 398.082719 180.696696 
L 398.284996 180.320616 
L 398.487273 180.465867 
L 398.487273 180.465867 
" clip-path="url(#p5cf10327b4)" style="fill: none; stroke: #1f77b4; stroke-width: 1.5; stroke-linecap: square"/>
   </g>
   <g id="patch_9">
    <path d="M 57.6 213.662118 
L 57.6 135.393882 
" style="fill: none; stroke: #000000; stroke-width: 0.8; stroke-linejoin: miter; stroke-linecap: square"/>
   </g>
   <g id="patch_10">
    <path d="M 414.72 213.662118 
L 414.72 135.393882 
" style="fill: none; stroke: #000000; stroke-width: 0.8; stroke-linejoin: miter; stroke-linecap: square"/>
   </g>
   <g id="patch_11">
    <path d="M 57.6 213.662118 
L 414.72 213.662118 
" style="fill: none; stroke: #000000; stroke-width: 0.8; stroke-linejoin: miter; stroke-linecap: square"/>
   </g>
   <g id="patch_12">
    <path d="M 57.6 135.393882 
L 414.72 135.393882 
" style="fill: none; stroke: #000000; stroke-width: 0.8; stroke-linejoin: miter; stroke-linecap: square"/>
   </g>
   <g id="legend_2">
    <g id="patch_13">
     <path d="M 361.384063 158.072007 
L 407.72 158.072007 
Q 409.72 158.072007 409.72 156.072007 
L 409.72 142.393882 
Q 409.72 140.393882 407.72 140.393882 
L 361.384063 140.393882 
Q 359.384063 140.393882 359.384063 142.393882 
L 359.384063 156.072007 
Q 359.384063 158.072007 361.384063 158.072007 
z
" style="fill: #ffffff; opacity: 0.8; stroke: #cccccc; stroke-linejoin: miter"/>
    </g>
    <g id="line2d_27">
     <path d="M 363.384063 148.49232 
L 373.384063 148.49232 
L 383.384063 148.49232 
" style="fill: none; stroke: #1f77b4; stroke-width: 1.5; stroke-linecap: square"/>
    </g>
    <g id="text_25">
     <!-- psi -->
     <g transform="translate(391.384063 151.99232) scale(0.1 -0.1)">
      <defs>
       <path id="DejaVuSans-73" d="M 2834 3397 
L 2834 2853 
Q 2591 2978 2328 3040 
Q 2066 3103 1784 3103 
Q 1356 3103 1142 2972 
Q 928 2841 928 2578 
Q 928 2378 1081 2264 
Q 1234 2150 1697 2047 
L 1894 2003 
Q 2506 1872 2764 1633 
Q 3022 1394 3022 966 
Q 3022 478 2636 193 
Q 2250 -91 1575 -91 
Q 1294 -91 989 -36 
Q 684 19 347 128 
L 347 722 
Q 666 556 975 473 
Q 1284 391 1588 391 
Q 1994 391 2212 530 
Q 2431 669 2431 922 
Q 2431 1156 2273 1281 
Q 2116 1406 1581 1522 
L 1381 1569 
Q 847 1681 609 1914 
Q 372 2147 372 2553 
Q 372 3047 722 3315 
Q 1072 3584 1716 3584 
Q 2034 3584 2315 3537 
Q 2597 3491 2834 3397 
z
" transform="scale(0.015625)"/>
      </defs>
      <use xlink:href="#DejaVuSans-70"/>
      <use xlink:href="#DejaVuSans-73" x="63.476562"/>
      <use xlink:href="#DejaVuSans-69" x="115.576172"/>
     </g>
    </g>
   </g>
  </g>
  <g id="axes_3">
   <g id="patch_14">
    <path d="M 57.6 307.584 
L 414.72 307.584 
L 414.72 229.315765 
L 57.6 229.315765 
z
" style="fill: #ffffff"/>
   </g>
   <g id="matplotlib.axis_5">
    <g id="xtick_19">
     <g id="line2d_28">
      <g>
       <use xlink:href="#m3f7c2dd1e5" x="73.832727" y="307.584" style="stroke: #000000; stroke-width: 0.8"/>
      </g>
     </g>
     <g id="text_26">
      <!-- 0 -->
      <g transform="translate(70.651477 322.182437) scale(0.1 -0.1)">
       <use xlink:href="#DejaVuSans-30"/>
      </g>
     </g>
    </g>
    <g id="xtick_20">
     <g id="line2d_29">
      <g>
       <use xlink:href="#m3f7c2dd1e5" x="114.288122" y="307.584" style="stroke: #000000; stroke-width: 0.8"/>
      </g>
     </g>
     <g id="text_27">
      <!-- 200 -->
      <g transform="translate(104.744372 322.182437) scale(0.1 -0.1)">
       <use xlink:href="#DejaVuSans-32"/>
       <use xlink:href="#DejaVuSans-30" x="63.623047"/>
       <use xlink:href="#DejaVuSans-30" x="127.246094"/>
      </g>
     </g>
    </g>
    <g id="xtick_21">
     <g id="line2d_30">
      <g>
       <use xlink:href="#m3f7c2dd1e5" x="154.743517" y="307.584" style="stroke: #000000; stroke-width: 0.8"/>
      </g>
     </g>
     <g id="text_28">
      <!-- 400 -->
      <g transform="translate(145.199767 322.182437) scale(0.1 -0.1)">
       <use xlink:href="#DejaVuSans-34"/>
       <use xlink:href="#DejaVuSans-30" x="63.623047"/>
       <use xlink:href="#DejaVuSans-30" x="127.246094"/>
      </g>
     </g>
    </g>
    <g id="xtick_22">
     <g id="line2d_31">
      <g>
       <use xlink:href="#m3f7c2dd1e5" x="195.198912" y="307.584" style="stroke: #000000; stroke-width: 0.8"/>
      </g>
     </g>
     <g id="text_29">
      <!-- 600 -->
      <g transform="translate(185.655162 322.182437) scale(0.1 -0.1)">
       <use xlink:href="#DejaVuSans-36"/>
       <use xlink:href="#DejaVuSans-30" x="63.623047"/>
       <use xlink:href="#DejaVuSans-30" x="127.246094"/>
      </g>
     </g>
    </g>
    <g id="xtick_23">
     <g id="line2d_32">
      <g>
       <use xlink:href="#m3f7c2dd1e5" x="235.654308" y="307.584" style="stroke: #000000; stroke-width: 0.8"/>
      </g>
     </g>
     <g id="text_30">
      <!-- 800 -->
      <g transform="translate(226.110558 322.182437) scale(0.1 -0.1)">
       <use xlink:href="#DejaVuSans-38"/>
       <use xlink:href="#DejaVuSans-30" x="63.623047"/>
       <use xlink:href="#DejaVuSans-30" x="127.246094"/>
      </g>
     </g>
    </g>
    <g id="xtick_24">
     <g id="line2d_33">
      <g>
       <use xlink:href="#m3f7c2dd1e5" x="276.109703" y="307.584" style="stroke: #000000; stroke-width: 0.8"/>
      </g>
     </g>
     <g id="text_31">
      <!-- 1000 -->
      <g transform="translate(263.384703 322.182437) scale(0.1 -0.1)">
       <use xlink:href="#DejaVuSans-31"/>
       <use xlink:href="#DejaVuSans-30" x="63.623047"/>
       <use xlink:href="#DejaVuSans-30" x="127.246094"/>
       <use xlink:href="#DejaVuSans-30" x="190.869141"/>
      </g>
     </g>
    </g>
    <g id="xtick_25">
     <g id="line2d_34">
      <g>
       <use xlink:href="#m3f7c2dd1e5" x="316.565098" y="307.584" style="stroke: #000000; stroke-width: 0.8"/>
      </g>
     </g>
     <g id="text_32">
      <!-- 1200 -->
      <g transform="translate(303.840098 322.182437) scale(0.1 -0.1)">
       <use xlink:href="#DejaVuSans-31"/>
       <use xlink:href="#DejaVuSans-32" x="63.623047"/>
       <use xlink:href="#DejaVuSans-30" x="127.246094"/>
       <use xlink:href="#DejaVuSans-30" x="190.869141"/>
      </g>
     </g>
    </g>
    <g id="xtick_26">
     <g id="line2d_35">
      <g>
       <use xlink:href="#m3f7c2dd1e5" x="357.020493" y="307.584" style="stroke: #000000; stroke-width: 0.8"/>
      </g>
     </g>
     <g id="text_33">
      <!-- 1400 -->
      <g transform="translate(344.295493 322.182437) scale(0.1 -0.1)">
       <use xlink:href="#DejaVuSans-31"/>
       <use xlink:href="#DejaVuSans-34" x="63.623047"/>
       <use xlink:href="#DejaVuSans-30" x="127.246094"/>
       <use xlink:href="#DejaVuSans-30" x="190.869141"/>
      </g>
     </g>
    </g>
    <g id="xtick_27">
     <g id="line2d_36">
      <g>
       <use xlink:href="#m3f7c2dd1e5" x="397.475888" y="307.584" style="stroke: #000000; stroke-width: 0.8"/>
      </g>
     </g>
     <g id="text_34">
      <!-- 1600 -->
      <g transform="translate(384.750888 322.182437) scale(0.1 -0.1)">
       <use xlink:href="#DejaVuSans-31"/>
       <use xlink:href="#DejaVuSans-36" x="63.623047"/>
       <use xlink:href="#DejaVuSans-30" x="127.246094"/>
       <use xlink:href="#DejaVuSans-30" x="190.869141"/>
      </g>
     </g>
    </g>
   </g>
   <g id="matplotlib.axis_6">
    <g id="ytick_6">
     <g id="line2d_37">
      <g>
       <use xlink:href="#m391fd3e18f" x="57.6" y="294.875059" style="stroke: #000000; stroke-width: 0.8"/>
      </g>
     </g>
     <g id="text_35">
      <!-- 0 -->
      <g transform="translate(44.2375 298.674278) scale(0.1 -0.1)">
       <use xlink:href="#DejaVuSans-30"/>
      </g>
     </g>
    </g>
    <g id="ytick_7">
     <g id="line2d_38">
      <g>
       <use xlink:href="#m391fd3e18f" x="57.6" y="259.888194" style="stroke: #000000; stroke-width: 0.8"/>
      </g>
     </g>
     <g id="text_36">
      <!-- 50 -->
      <g transform="translate(37.875 263.687413) scale(0.1 -0.1)">
       <use xlink:href="#DejaVuSans-35"/>
       <use xlink:href="#DejaVuSans-30" x="63.623047"/>
      </g>
     </g>
    </g>
   </g>
   <g id="line2d_39">
    <path d="M 73.832727 280.34309 
L 74.641835 287.673948 
L 75.046389 291.391271 
L 75.248666 292.655744 
L 75.65322 293.455987 
L 76.462328 293.997761 
L 77.878267 295.668742 
L 79.091929 296.218535 
L 79.901037 296.175263 
L 81.114698 295.755112 
L 81.923806 295.180701 
L 82.935191 294.108487 
L 83.946576 292.949184 
L 89.812608 283.411464 
L 90.621716 282.07733 
L 91.228547 281.043389 
L 95.678641 273.969382 
L 96.487749 272.770531 
L 96.892302 272.01604 
L 98.105964 270.209017 
L 98.510518 269.731427 
L 99.521903 268.376094 
L 100.533288 267.214944 
L 101.342396 266.855095 
L 103.971997 266.526598 
L 104.578828 266.47413 
L 105.387935 266.537874 
L 106.601597 266.657956 
L 107.815259 266.536332 
L 108.826644 266.549428 
L 109.433475 266.643119 
L 110.44486 266.700657 
L 113.07446 266.675251 
L 114.288122 266.697001 
L 115.906338 266.626748 
L 118.333662 266.761374 
L 119.345047 266.604205 
L 120.154155 266.744825 
L 120.963263 266.919052 
L 122.379201 266.822223 
L 123.592863 266.687514 
L 124.604248 266.741723 
L 125.81791 266.977552 
L 126.222464 266.955548 
L 126.829295 266.837827 
L 128.447511 266.807816 
L 129.661172 267.075192 
L 134.51582 267.070344 
L 135.527205 267.116281 
L 136.740867 267.035741 
L 137.954528 267.05474 
L 139.775021 267.119441 
L 139.977298 267.348892 
L 140.584129 267.289974 
L 140.786406 267.431238 
L 141.19096 268.331603 
L 141.797791 270.34249 
L 142.606899 275.068576 
L 143.618284 284.064755 
L 144.629669 294.715033 
L 145.034223 299.711668 
L 145.438777 301.900636 
L 145.843331 303.04606 
L 146.450161 304.026353 
L 146.854715 303.724626 
L 147.259269 303.013497 
L 148.068377 300.529352 
L 148.877485 296.083222 
L 149.282039 294.525434 
L 149.686593 293.980171 
L 149.88887 293.806168 
L 150.091147 293.825499 
L 150.495701 294.461478 
L 150.900255 295.503421 
L 151.91164 298.778701 
L 152.113917 299.403995 
L 152.518471 299.740978 
L 152.923025 299.452177 
L 153.327579 298.504513 
L 153.93441 296.40487 
L 154.136686 296.189294 
L 154.54124 296.496967 
L 155.148071 297.670333 
L 155.957179 299.619016 
L 156.159456 299.677012 
L 156.56401 299.370213 
L 156.968564 298.557822 
L 157.575395 297.01935 
L 157.979949 297.28831 
L 158.384503 297.897813 
L 158.789057 298.916495 
L 159.395888 299.762968 
L 159.598165 299.751192 
L 160.002719 299.205385 
L 160.811827 297.563717 
L 161.014104 297.517395 
L 161.418658 297.771424 
L 162.025489 298.984065 
L 162.430042 299.66138 
L 162.632319 299.796388 
L 162.834596 299.758435 
L 163.441427 299.059926 
L 163.845981 298.224445 
L 164.250535 297.796576 
L 164.452812 297.752786 
L 164.655089 297.871263 
L 165.666474 299.391282 
L 166.071028 299.597441 
L 167.082413 299.69502 
L 168.296075 299.39074 
L 171.330229 299.319333 
L 172.341614 299.052027 
L 173.555276 299.271506 
L 175.173492 298.841046 
L 175.780323 298.692093 
L 176.184877 298.784702 
L 176.993985 299.097704 
L 177.398539 299.053001 
L 177.803093 298.867385 
L 178.814477 298.055755 
L 179.016754 298.068605 
L 180.63497 299.179746 
L 181.039524 298.754867 
L 182.050909 297.201418 
L 182.455463 297.299496 
L 182.65774 297.486467 
L 183.062294 298.031706 
L 183.669125 298.881309 
L 184.073679 299.143502 
L 184.275956 299.179409 
L 184.478233 299.101302 
L 185.085064 298.356269 
L 185.894172 296.749307 
L 186.298726 296.697974 
L 186.70328 296.883078 
L 187.107833 297.28069 
L 188.523772 298.8263 
L 188.928326 298.724618 
L 189.33288 298.254997 
L 189.939711 297.18885 
L 190.344265 296.528102 
L 190.546542 296.395144 
L 190.951096 296.556482 
L 191.35565 297.0255 
L 191.760204 297.966349 
L 192.164758 298.575199 
L 192.569312 298.678821 
L 193.176143 298.286319 
L 193.580697 297.637927 
L 194.187528 295.981661 
L 194.389805 295.818617 
L 194.794359 295.880361 
L 195.198912 296.217074 
L 195.805743 297.025668 
L 196.817128 298.318599 
L 197.221682 298.13823 
L 197.626236 297.604331 
L 198.03079 296.881848 
L 198.435344 295.940615 
L 198.839898 295.661536 
L 199.446729 296.052987 
L 201.064945 297.811427 
L 201.469499 297.708944 
L 201.874053 297.244311 
L 202.278607 296.500155 
L 202.683161 295.734434 
L 202.885438 295.602506 
L 203.289992 295.739445 
L 203.492268 300.122729 
L 204.099099 300.64404 
L 204.503653 300.346827 
L 204.908207 299.881551 
L 205.312761 299.74364 
L 205.717315 299.765091 
L 206.121869 299.504896 
L 206.930977 298.271336 
L 207.537808 297.098039 
L 207.942362 296.210204 
L 209.156024 291.990949 
L 209.762855 289.6811 
L 211.987901 284.219445 
L 212.594732 282.665799 
L 213.606117 280.464213 
L 214.819779 277.706837 
L 216.842549 272.958321 
L 217.651657 271.211391 
L 218.663042 269.020534 
L 221.899473 262.484188 
L 224.529074 255.141403 
L 227.158675 247.258988 
L 228.170059 244.069384 
L 228.979167 241.471028 
L 229.585998 239.832038 
L 229.990552 239.142112 
L 230.395106 238.949984 
L 231.406491 238.935711 
L 231.811045 239.120607 
L 233.429261 240.807708 
L 234.036092 241.343995 
L 234.642923 241.650072 
L 235.249754 241.709631 
L 235.856585 241.486908 
L 236.665692 240.856879 
L 237.272523 240.526252 
L 237.879354 240.253408 
L 238.486185 240.34667 
L 241.115786 240.938053 
L 243.745387 240.964621 
L 244.554494 241.076845 
L 245.565879 241.152857 
L 248.19548 241.263396 
L 248.802311 241.310026 
L 249.611419 241.28118 
L 254.466066 241.572831 
L 254.668343 242.125477 
L 255.477451 242.230594 
L 255.882005 242.692463 
L 256.89339 245.421459 
L 257.500221 248.155413 
L 258.309329 254.406359 
L 259.725268 268.036374 
L 260.332099 270.820749 
L 260.736653 272.148807 
L 261.343483 274.366004 
L 261.950314 276.622436 
L 262.354868 277.307429 
L 263.366253 278.213509 
L 264.579915 278.681305 
L 264.984469 278.624925 
L 265.995854 278.022728 
L 267.61407 276.160522 
L 270.24367 271.63495 
L 271.861886 268.356475 
L 274.896041 261.281026 
L 275.300595 259.720949 
L 276.514257 255.852284 
L 280.155242 242.842955 
L 281.166627 237.982519 
L 281.571181 236.873192 
L 282.98712 234.260752 
L 283.796228 233.296849 
L 284.403059 232.921194 
L 284.807613 232.875147 
L 285.414444 233.051686 
L 286.223551 233.551506 
L 287.437213 235.032612 
L 288.650875 237.303837 
L 290.269091 240.446004 
L 291.078199 241.457125 
L 292.898692 242.881725 
L 293.707799 243.118639 
L 294.516907 243.078463 
L 295.528292 242.761226 
L 296.741954 242.038431 
L 297.955616 240.925099 
L 300.585217 238.114163 
L 301.596602 237.870919 
L 302.405709 238.074069 
L 303.214817 238.502854 
L 304.630756 239.650104 
L 305.237587 239.954455 
L 306.248972 240.163433 
L 307.05808 240.1639 
L 308.069465 239.885299 
L 309.283127 239.48461 
L 309.485404 239.5221 
L 310.294511 240.204345 
L 310.901342 240.386235 
L 311.305896 240.511744 
L 313.530943 240.501109 
L 314.542328 240.429924 
L 334.972302 242.920765 
L 336.185964 243.113465 
L 337.601903 243.258198 
L 338.411011 243.386382 
L 339.220119 243.456362 
L 341.040612 243.839547 
L 341.84972 243.953226 
L 343.063381 244.162506 
L 344.277043 244.383358 
L 344.883874 244.413337 
L 346.50209 244.708926 
L 348.929414 245.227456 
L 349.738522 245.30658 
L 352.165845 245.799051 
L 356.413662 246.61058 
L 357.020493 246.834807 
L 357.829601 246.975651 
L 358.638709 247.057712 
L 359.650093 247.392442 
L 360.661478 247.628484 
L 361.470586 247.824964 
L 362.279694 248.006856 
L 364.909295 248.646667 
L 365.516126 248.886954 
L 367.538895 249.45349 
L 367.741172 249.648466 
L 371.382158 250.466328 
L 375.832251 252.204107 
L 378.664129 253.286702 
L 379.473237 253.807364 
L 382.102838 255.556201 
L 386.755208 257.673171 
L 387.96887 258.722522 
L 391.609856 262.208014 
L 394.037179 264.134625 
L 396.059949 266.160272 
L 397.678165 268.611467 
L 398.487273 271.525725 
L 398.487273 271.525725 
" clip-path="url(#p49d9a903bf)" style="fill: none; stroke: #1f77b4; stroke-width: 1.5; stroke-linecap: square"/>
   </g>
   <g id="patch_15">
    <path d="M 57.6 307.584 
L 57.6 229.315765 
" style="fill: none; stroke: #000000; stroke-width: 0.8; stroke-linejoin: miter; stroke-linecap: square"/>
   </g>
   <g id="patch_16">
    <path d="M 414.72 307.584 
L 414.72 229.315765 
" style="fill: none; stroke: #000000; stroke-width: 0.8; stroke-linejoin: miter; stroke-linecap: square"/>
   </g>
   <g id="patch_17">
    <path d="M 57.6 307.584 
L 414.72 307.584 
" style="fill: none; stroke: #000000; stroke-width: 0.8; stroke-linejoin: miter; stroke-linecap: square"/>
   </g>
   <g id="patch_18">
    <path d="M 57.6 229.315765 
L 414.72 229.315765 
" style="fill: none; stroke: #000000; stroke-width: 0.8; stroke-linejoin: miter; stroke-linecap: square"/>
   </g>
   <g id="legend_3">
    <g id="patch_19">
     <path d="M 64.6 251.99389 
L 123.059375 251.99389 
Q 125.059375 251.99389 125.059375 249.99389 
L 125.059375 236.315765 
Q 125.059375 234.315765 123.059375 234.315765 
L 64.6 234.315765 
Q 62.6 234.315765 62.6 236.315765 
L 62.6 249.99389 
Q 62.6 251.99389 64.6 251.99389 
z
" style="fill: #ffffff; opacity: 0.8; stroke: #cccccc; stroke-linejoin: miter"/>
    </g>
    <g id="line2d_40">
     <path d="M 66.6 242.414202 
L 76.6 242.414202 
L 86.6 242.414202 
" style="fill: none; stroke: #1f77b4; stroke-width: 1.5; stroke-linecap: square"/>
    </g>
    <g id="text_37">
     <!-- theta -->
     <g transform="translate(94.6 245.914202) scale(0.1 -0.1)">
      <defs>
       <path id="DejaVuSans-74" d="M 1172 4494 
L 1172 3500 
L 2356 3500 
L 2356 3053 
L 1172 3053 
L 1172 1153 
Q 1172 725 1289 603 
Q 1406 481 1766 481 
L 2356 481 
L 2356 0 
L 1766 0 
Q 1100 0 847 248 
Q 594 497 594 1153 
L 594 3053 
L 172 3053 
L 172 3500 
L 594 3500 
L 594 4494 
L 1172 4494 
z
" transform="scale(0.015625)"/>
       <path id="DejaVuSans-65" d="M 3597 1894 
L 3597 1613 
L 953 1613 
Q 991 1019 1311 708 
Q 1631 397 2203 397 
Q 2534 397 2845 478 
Q 3156 559 3463 722 
L 3463 178 
Q 3153 47 2828 -22 
Q 2503 -91 2169 -91 
Q 1331 -91 842 396 
Q 353 884 353 1716 
Q 353 2575 817 3079 
Q 1281 3584 2069 3584 
Q 2775 3584 3186 3129 
Q 3597 2675 3597 1894 
z
M 3022 2063 
Q 3016 2534 2758 2815 
Q 2500 3097 2075 3097 
Q 1594 3097 1305 2825 
Q 1016 2553 972 2059 
L 3022 2063 
z
" transform="scale(0.015625)"/>
       <path id="DejaVuSans-61" d="M 2194 1759 
Q 1497 1759 1228 1600 
Q 959 1441 959 1056 
Q 959 750 1161 570 
Q 1363 391 1709 391 
Q 2188 391 2477 730 
Q 2766 1069 2766 1631 
L 2766 1759 
L 2194 1759 
z
M 3341 1997 
L 3341 0 
L 2766 0 
L 2766 531 
Q 2569 213 2275 61 
Q 1981 -91 1556 -91 
Q 1019 -91 701 211 
Q 384 513 384 1019 
Q 384 1609 779 1909 
Q 1175 2209 1959 2209 
L 2766 2209 
L 2766 2266 
Q 2766 2663 2505 2880 
Q 2244 3097 1772 3097 
Q 1472 3097 1187 3025 
Q 903 2953 641 2809 
L 641 3341 
Q 956 3463 1253 3523 
Q 1550 3584 1831 3584 
Q 2591 3584 2966 3190 
Q 3341 2797 3341 1997 
z
" transform="scale(0.015625)"/>
      </defs>
      <use xlink:href="#DejaVuSans-74"/>
      <use xlink:href="#DejaVuSans-68" x="39.208984"/>
      <use xlink:href="#DejaVuSans-65" x="102.587891"/>
      <use xlink:href="#DejaVuSans-74" x="164.111328"/>
      <use xlink:href="#DejaVuSans-61" x="203.320312"/>
     </g>
    </g>
   </g>
  </g>
 </g>
 <defs>
  <clipPath id="peb03f3868a">
   <rect x="57.6" y="41.472" width="357.12" height="78.268235"/>
  </clipPath>
  <clipPath id="p5cf10327b4">
   <rect x="57.6" y="135.393882" width="357.12" height="78.268235"/>
  </clipPath>
  <clipPath id="p49d9a903bf">
   <rect x="57.6" y="229.315765" width="357.12" height="78.268235"/>
  </clipPath>
 </defs>
</svg>
